<?xml version="1.0" encoding="UTF-8" standalone="no"?>
<!-- Created with Inkscape (http://www.inkscape.org/) -->

<svg
   width="210mm"
   height="297mm"
   viewBox="0 0 210 297"
   version="1.1"
   id="svg1"
   xml:space="preserve"
   inkscape:version="1.4 (86a8ad7, 2024-10-11)"
   sodipodi:docname="logo-proyectofinal2.0.svg"
   xmlns:inkscape="http://www.inkscape.org/namespaces/inkscape"
   xmlns:sodipodi="http://sodipodi.sourceforge.net/DTD/sodipodi-0.dtd"
   xmlns:xlink="http://www.w3.org/1999/xlink"
   xmlns="http://www.w3.org/2000/svg"
   xmlns:svg="http://www.w3.org/2000/svg"><sodipodi:namedview
     id="namedview1"
     pagecolor="#ffffff"
     bordercolor="#000000"
     borderopacity="0.25"
     inkscape:showpageshadow="2"
     inkscape:pageopacity="0.0"
     inkscape:pagecheckerboard="0"
     inkscape:deskcolor="#d1d1d1"
     inkscape:document-units="mm"
     showguides="false"
     inkscape:zoom="2.0489618"
     inkscape:cx="410.93982"
     inkscape:cy="527.82828"
     inkscape:window-width="1366"
     inkscape:window-height="745"
     inkscape:window-x="-8"
     inkscape:window-y="-8"
     inkscape:window-maximized="1"
     inkscape:current-layer="layer1" /><defs
     id="defs1"><linearGradient
       id="swatch11"
       inkscape:swatch="solid"><stop
         style="stop-color:#000000;stop-opacity:1;"
         offset="0"
         id="stop11" /></linearGradient><linearGradient
       id="swatch10"
       inkscape:swatch="solid"><stop
         style="stop-color:#c39b00;stop-opacity:1;"
         offset="0"
         id="stop10" /></linearGradient><linearGradient
       id="swatch9"
       inkscape:swatch="solid"><stop
         style="stop-color:#7e5c00;stop-opacity:1;"
         offset="0"
         id="stop9" /></linearGradient><linearGradient
       id="swatch5"
       inkscape:swatch="solid"><stop
         style="stop-color:#6f4f00;stop-opacity:1;"
         offset="0"
         id="stop5" /></linearGradient><linearGradient
       id="swatch1"
       inkscape:swatch="solid"><stop
         style="stop-color:#000000;stop-opacity:1;"
         offset="0"
         id="stop1" /></linearGradient><linearGradient
       inkscape:collect="always"
       xlink:href="#swatch5"
       id="linearGradient8"
       gradientUnits="userSpaceOnUse"
       x1="122.64748"
       y1="110.73593"
       x2="169.35357"
       y2="110.73593"
       gradientTransform="translate(-20.144348,13.946087)" /><linearGradient
       inkscape:collect="always"
       xlink:href="#swatch5"
       id="linearGradient11"
       x1="94.781738"
       y1="133.64999"
       x2="165.28696"
       y2="133.64999"
       gradientUnits="userSpaceOnUse" /></defs><g
     inkscape:label="Capa 1"
     inkscape:groupmode="layer"
     id="layer1"><text
       xml:space="preserve"
       style="font-size:25.4px;line-height:30.6;font-family:Arial;-inkscape-font-specification:Arial;text-align:start;writing-mode:lr-tb;direction:ltr;text-anchor:start;opacity:1;fill:#806600;fill-opacity:1;stroke:url(#linearGradient8);stroke-width:1.76;stroke-opacity:1"
       x="102.78782"
       y="133.77914"
       id="text5"><tspan
         sodipodi:role="line"
         id="tspan5"
         style="fill:#806600;fill-opacity:1;stroke:url(#linearGradient8);stroke-width:1.76"
         x="102.78782"
         y="133.77914" /></text><text
       xml:space="preserve"
       style="font-style:normal;font-variant:normal;font-weight:normal;font-stretch:normal;font-size:25.4px;line-height:35.5;font-family:'Modern No. 20';-inkscape-font-specification:'Modern No. 20, ';text-align:start;writing-mode:lr-tb;direction:ltr;text-anchor:start;opacity:1;fill:#800000;fill-opacity:1;stroke:#7e5c00;stroke-width:1.76;stroke-opacity:0.135135"
       x="95.846115"
       y="151.89633"
       id="text8"><tspan
         sodipodi:role="line"
         id="tspan8"
         style="font-style:normal;font-variant:normal;font-weight:normal;font-stretch:normal;line-height:35.5;font-family:'Modern No. 20';-inkscape-font-specification:'Modern No. 20, ';fill:#800000;stroke:#7e5c00;stroke-width:1.76;stroke-opacity:0.135135"
         x="95.846115"
         y="151.89633">TECH</tspan></text><text
       xml:space="preserve"
       style="font-style:normal;font-variant:normal;font-weight:normal;font-stretch:normal;font-size:26.6528px;line-height:35.5;font-family:'Modern No. 20';-inkscape-font-specification:'Modern No. 20, ';text-align:start;writing-mode:lr-tb;direction:ltr;text-anchor:start;opacity:1;fill:#800000;fill-opacity:1;stroke:#7e5c00;stroke-width:2.26654;stroke-dasharray:none;stroke-opacity:0.135135"
       x="97.109879"
       y="138.74088"
       id="text9"
       transform="scale(1.0573807,0.94573316)"><tspan
         sodipodi:role="line"
         id="tspan9"
         style="font-style:normal;font-variant:normal;font-weight:normal;font-stretch:normal;line-height:35.5;font-family:'Modern No. 20';-inkscape-font-specification:'Modern No. 20, ';fill:#800000;stroke-width:2.26654;stroke-dasharray:none"
         x="97.109879"
         y="138.74088">TOJ</tspan></text><path
       style="opacity:1;fill:#aa8800;fill-opacity:1;stroke:url(#linearGradient11);stroke-width:1.16;stroke-opacity:1;stroke-dasharray:none"
       d="m 94.781739,133.52087 70.505221,0.25826 v 0"
       id="path9" /><path
       style="opacity:1;fill:#aa8800;fill-opacity:1;stroke:none;stroke-width:3.02605;stroke-dasharray:none;stroke-opacity:1"
       d="m 469.57266,506.99485 c -60.80178,-0.20947 -110.71751,-0.54971 -110.92385,-0.7561 -0.20634,-0.20638 -0.18262,-1.11154 0.0527,-2.01146 l 0.42789,-1.63623 78.68812,0.4585 c 43.27847,0.25217 103.01832,0.4585 132.75524,0.4585 h 54.06711 v 2.07063 2.07063 L 602.3806,507.5125 c -12.24259,-0.0752 -72.00617,-0.30819 -132.80795,-0.51765 z"
       id="path11"
       transform="scale(0.26458333)" /><path
       style="opacity:1;fill:#aa8800;fill-opacity:1;stroke:none;stroke-width:3.02605;stroke-dasharray:none;stroke-opacity:1"
       d="m 280.22518,597.08799 v -3.08577 l 20.18864,-0.21089 c 19.65579,-0.20533 20.27671,-0.25425 23.52568,-1.85378 2.06426,-1.01627 4.23468,-2.85904 5.69054,-4.83146 4.24536,-5.75172 4.43151,-7.21875 4.43151,-34.92492 v -24.92879 l 2.41573,0.28202 2.41574,0.28203 -0.0574,12.17571 c -0.0316,6.69664 -0.26921,20.09743 -0.52807,29.77954 l -0.47065,17.60383 -2.13976,3.79267 c -1.66294,2.94752 -2.91509,4.19893 -5.61908,5.61576 -3.79955,1.99088 -5.1496,2.1019 -36.56631,3.00704 l -13.28654,0.38279 z"
       id="path12"
       transform="scale(0.26458333)" /><path
       style="opacity:1;fill:#aa8800;fill-opacity:1;stroke:none;stroke-width:3.02605;stroke-dasharray:none;stroke-opacity:1"
       d="m 220.87357,567.1072 c -2.52406,-1.35366 -5.52811,-6.09629 -5.52811,-8.72746 0,-2.63118 3.00405,-7.3738 5.52811,-8.72747 1.31327,-0.70432 3.64228,-1.28058 5.17557,-1.28058 2.56035,0 3.22288,-0.43765 8.12073,-5.36439 l 5.33293,-5.3644 v -23.91432 -23.91431 l -3.8346,-4.49194 c -3.57616,-4.18918 -3.98979,-4.46675 -6.13717,-4.11827 -4.80999,0.78055 -9.84022,-2.62069 -10.9694,-7.41708 -0.66622,-2.8299 0.75974,-6.57187 3.38161,-8.87389 1.97537,-1.7344 3.0242,-2.12694 5.67746,-2.12483 6.05913,0.005 10.02211,4.05916 9.7176,9.94169 -0.14044,2.71325 0.18021,3.37797 3.43428,7.11926 l 3.5892,4.12658 6.71579,0.44473 c 3.69369,0.2446 12.09573,0.44634 18.6712,0.4483 l 11.9554,0.004 5.09919,-5.34912 c 4.61341,-4.83955 5.10186,-5.61885 5.12728,-8.18045 0.0575,-5.79749 5.54542,-10.52608 11.12269,-9.5838 3.34979,0.56594 7.19167,4.07644 7.87723,7.19775 1.45451,6.62236 -4.87235,12.74574 -11.77195,11.39335 -1.84642,-0.36192 -2.40038,0.0534 -6.3371,4.75139 l -4.31381,5.14798 v 23.11854 23.11853 l 5.14921,6.10018 c 4.84221,5.73645 5.29271,6.0878 7.55575,5.89283 5.38342,-0.46382 10.30549,4.23086 10.29847,9.82266 -0.008,6.1825 -4.29439,10.37689 -10.09426,9.87708 -5.72253,-0.49314 -9.39978,-5.5959 -8.47529,-11.7608 0.42806,-2.85448 0.35498,-2.98254 -5.48511,-9.61118 l -5.91895,-6.71815 h -17.40891 -17.40892 l -6.03549,6.65089 -6.0355,6.65089 0.42989,3.24064 c 1.10684,8.3438 -7.01369,14.33236 -14.20502,10.4756 z"
       id="path13"
       transform="scale(0.26458333)" /><path
       style="opacity:1;fill:#aa8800;fill-opacity:1;stroke:none;stroke-width:3.02605;stroke-dasharray:none;stroke-opacity:1"
       d="m 189.90748,473.80811 c 0.24469,-15.19683 0.65886,-28.77118 0.92039,-30.16522 1.07747,-5.74343 4.70381,-10.06443 9.90734,-11.8052 1.26494,-0.42317 8.25332,-0.9355 15.52972,-1.13853 7.27641,-0.20302 17.50051,-0.52532 22.72022,-0.71622 l 9.49038,-0.34708 v 3.078 3.078 l -20.53374,0.21037 c -19.66802,0.2015 -20.65429,0.27484 -23.39297,1.73954 -1.57258,0.84104 -3.96283,2.81846 -5.31167,4.39428 -4.45642,5.20633 -4.59798,6.26022 -4.59798,34.23167 v 25.06971 l -2.58829,6.3e-4 -2.58829,6.4e-4 z"
       id="path14"
       transform="scale(0.26458333)" /><path
       style="opacity:1;fill:#aa8800;fill-opacity:1;stroke:none;stroke-width:3.02605;stroke-dasharray:none;stroke-opacity:1"
       d="m 216.03567,598.11076 c -13.45438,-0.36996 -14.29881,-0.47381 -17.19355,-2.11459 -1.67433,-0.94904 -3.9129,-2.8126 -4.97459,-4.14126 -3.47621,-4.35028 -3.89236,-7.8003 -4.44329,-36.83617 l -0.50591,-26.66313 h 2.8279 2.82791 l 0.20506,24.675 c 0.19544,23.51556 0.27439,24.82492 1.68028,27.86543 2.0121,4.35159 5.85005,8.43087 9.76094,10.37472 3.20162,1.59132 3.67516,1.62317 27.24305,1.83278 l 23.98479,0.21331 v 2.72008 2.72008 l -13.63164,-0.12859 c -7.49741,-0.0707 -19.99883,-0.30367 -27.78095,-0.51766 z"
       id="path15"
       transform="scale(0.26458333)" /><path
       style="opacity:1;fill:#aa8800;fill-opacity:1;stroke:none;stroke-width:3.02605;stroke-dasharray:none;stroke-opacity:1"
       d="m 189.8077,514.29701 v -2.50644 h 16.77822 c 17.77474,0 20.20864,0.38482 18.2737,2.88922 -0.76484,0.98992 -3.23157,1.21444 -17.96923,1.63555 l -17.08269,0.48811 z"
       id="path16"
       transform="scale(0.26458333)" /><path
       style="opacity:1;fill:#aa8800;fill-opacity:1;stroke:none;stroke-width:3.02605;stroke-dasharray:none;stroke-opacity:1"
       d="m 263.83245,469.53821 c -0.45426,-0.55492 -0.8152,-8.03968 -0.96635,-20.03915 -0.21006,-16.67592 -0.10735,-19.15202 0.79405,-19.14275 2.73652,0.0281 2.78958,0.44332 2.59942,20.34109 -0.18147,18.9886 -0.47036,21.23114 -2.42712,18.84081 z"
       id="path17"
       transform="scale(0.26458333)" /><path
       style="opacity:1;fill:#aa8800;fill-opacity:1;stroke:none;stroke-width:3.02605;stroke-dasharray:none;stroke-opacity:1"
       d="m 334.06155,477.7194 c 0,-12.28569 -0.31589,-24.00331 -0.70199,-26.03916 -1.27474,-6.72171 -4.76728,-11.84651 -9.99626,-14.66809 -2.62295,-1.41535 -3.79569,-1.50098 -23.48042,-1.71434 l -20.71957,-0.22457 0.26456,-2.7741 0.26455,-2.77411 21.83544,0.44757 c 12.00949,0.24616 23.35152,0.78218 25.2045,1.19117 4.25585,0.93933 8.07019,4.58837 9.65351,9.23518 1.42438,4.18031 1.69742,8.84308 2.1698,37.05369 l 0.3785,22.60437 h -2.43631 -2.43631 z"
       id="path18"
       transform="scale(0.26458333)" /><path
       style="opacity:1;fill:#aa8800;fill-opacity:1;stroke:none;stroke-width:3.02605;stroke-dasharray:none;stroke-opacity:1"
       d="m 302.52319,514.79671 c -1.01413,-2.64279 1.29769,-3.00614 19.12696,-3.00614 h 17.00379 l -0.30391,2.07063 -0.3039,2.07063 h -17.54367 c -15.64326,0 -17.59086,-0.12296 -17.97927,-1.13512 z"
       id="path19"
       transform="scale(0.26458333)" /><path
       style="opacity:1;fill:#aa8800;fill-opacity:1;stroke:none;stroke-width:0.800642;stroke-dasharray:none;stroke-opacity:1"
       d="m 70.524735,152.75005 c 0,-4.70075 0.04807,-5.86131 0.249698,-6.02865 0.630317,-0.52311 0.722929,0.17488 0.810451,6.10822 l 0.0847,5.74184 h -0.572425 -0.572424 z"
       id="path20" /><rect
       style="opacity:1;fill:#000000;fill-opacity:1;stroke:none;stroke-width:0.830557;stroke-dasharray:none;stroke-opacity:1"
       id="rect26"
       width="6.456522"
       height="7.8769565"
       x="66.437614"
       y="131.39021" /><ellipse
       style="opacity:1;fill:#000000;fill-opacity:1;stroke:none;stroke-width:3.20607;stroke-dasharray:none;stroke-opacity:1"
       id="path26"
       cx="60.336193"
       cy="124.90143"
       rx="1.5172826"
       ry="1.4527174" /><ellipse
       style="fill:#000000;fill-opacity:1;stroke:none;stroke-width:3.20607;stroke-dasharray:none;stroke-opacity:1"
       id="path26-4"
       cx="79.840271"
       cy="124.6131"
       rx="1.5172826"
       ry="1.4527174" /><ellipse
       style="fill:#000000;fill-opacity:1;stroke:none;stroke-width:3.20607;stroke-dasharray:none;stroke-opacity:1"
       id="path26-8"
       cx="59.538239"
       cy="147.69641"
       rx="1.5172826"
       ry="1.4527174" /><ellipse
       style="fill:#000000;fill-opacity:1;stroke:none;stroke-width:3.20607;stroke-dasharray:none;stroke-opacity:1"
       id="path26-7"
       cx="80.027641"
       cy="147.71538"
       rx="1.5172826"
       ry="1.4527174" /></g></svg>
